<svg width="20" height="26" viewBox="0 0 20 26" fill="none" xmlns="http://www.w3.org/2000/svg">
<path d="M9.75 26C15.1353 26 19.5 22.75 19.5 17.0625C19.5 14.625 18.6875 10.5625 15.4375 7.3125C15.8438 9.75 13.4062 10.5625 13.4062 10.5625C14.625 6.5 11.375 0.8125 6.5 0C7.08012 3.25 7.3125 6.5 3.25 9.75C1.21875 11.375 0 14.1846 0 17.0625C0 22.75 4.36475 26 9.75 26ZM9.75 24.375C7.05737 24.375 4.875 22.75 4.875 19.9062C4.875 18.6875 5.28125 16.6562 6.90625 15.0312C6.70312 16.25 8.125 17.0625 8.125 17.0625C7.51562 15.0312 8.9375 11.7812 11.375 11.375C11.0841 13 10.9688 14.625 13 16.25C14.0156 17.0625 14.625 18.4665 14.625 19.9062C14.625 22.75 12.4426 24.375 9.75 24.375Z" fill="black"/>
</svg>
