<svg xmlns="http://www.w3.org/2000/svg" width="31" height="31" viewBox="0 0 31 31" fill="none">
  <path d="M8.61229 9.86426C8.47425 11.3368 8.37737 13.9427 9.24682 15.0519C9.24682 15.0519 8.83753 12.1893 12.5067 8.59762C13.984 7.15176 14.3255 5.18519 13.8096 3.71027C13.5166 2.87473 12.9814 2.18449 12.5164 1.70254C12.2451 1.41918 12.4534 0.951757 12.8482 0.96871C15.2361 1.07527 19.1063 1.73887 20.7507 5.86574C21.4724 7.6773 21.5257 9.54941 21.1818 11.453C20.9639 12.6688 20.1889 15.3716 21.9568 15.7034C23.2186 15.9407 23.8289 14.9381 24.1026 14.2164C24.2164 13.9161 24.6112 13.841 24.8243 14.0807C26.9556 16.505 27.1372 19.3604 26.6964 21.8186C25.8439 26.5704 21.0317 30.0288 16.2509 30.0288C10.2785 30.0288 5.5244 26.6115 4.29167 20.4261C3.79518 17.9291 4.04706 12.9885 7.89784 9.50098C8.18362 9.23941 8.65104 9.47191 8.61229 9.86426Z" fill="url(#paint0_radial_274_568)"/>
  <path d="M18.4326 18.7502C16.2311 15.9166 17.2168 12.6834 17.7569 11.3949C17.8295 11.2254 17.6358 11.0656 17.4832 11.1697C16.5362 11.8139 14.5963 13.33 13.693 15.4637C12.4699 18.3481 12.5571 19.7601 13.2812 21.4845C13.7172 22.5235 13.211 22.7438 12.9567 22.7826C12.7097 22.8213 12.482 22.6567 12.3004 22.4847C11.7779 21.983 11.4056 21.3456 11.2251 20.6441C11.1863 20.4939 10.9901 20.4528 10.9005 20.5763C10.2224 21.5135 9.87124 23.0175 9.85429 24.0807C9.80101 27.3672 12.5159 30.0313 15.8 30.0313C19.939 30.0313 22.9542 25.4539 20.5759 21.6274C19.8857 20.5133 19.2366 19.7843 18.4326 18.7502Z" fill="url(#paint1_radial_274_568)"/>
  <defs>
    <radialGradient id="paint0_radial_274_568" cx="0" cy="0" r="1" gradientTransform="matrix(-17.0953 -0.0741936 -0.121889 28.05 15.068 30.1041)" gradientUnits="userSpaceOnUse">
      <stop offset="0.314" stop-color="#FFD54C"/>
      <stop offset="0.662" stop-color="#F67631"/>
      <stop offset="0.972" stop-color="#EF2D1F"/>
    </radialGradient>
    <radialGradient id="paint1_radial_274_568" cx="0" cy="0" r="1" gradientTransform="matrix(-0.180668 17.8862 13.4607 0.135949 16.0276 13.0923)" gradientUnits="userSpaceOnUse">
      <stop offset="0.214" stop-color="#F5E12C"/>
      <stop offset="0.740385" stop-color="#FFF8BA"/>
    </radialGradient>
  </defs>
</svg>