<svg xmlns="http://www.w3.org/2000/svg" width="25" height="25" viewBox="0 0 25 25" fill="none">
  <path d="M12.5 25C17.6781 25 21.875 21.875 21.875 16.4062C21.875 14.0625 21.0938 10.1562 17.9688 7.03125C18.3594 9.375 16.0156 10.1562 16.0156 10.1562C17.1875 6.25 14.0625 0.78125 9.375 0C9.93281 3.125 10.1562 6.25 6.25 9.375C4.29688 10.9375 3.125 13.6391 3.125 16.4062C3.125 21.875 7.32188 25 12.5 25ZM12.5 23.4375C9.91094 23.4375 7.8125 21.875 7.8125 19.1406C7.8125 17.9688 8.20312 16.0156 9.76562 14.4531C9.57031 15.625 10.9375 16.4062 10.9375 16.4062C10.3516 14.4531 11.7188 11.3281 14.0625 10.9375C13.7828 12.5 13.6719 14.0625 15.625 15.625C16.6016 16.4062 17.1875 17.7563 17.1875 19.1406C17.1875 21.875 15.0891 23.4375 12.5 23.4375Z" fill="#FF0000"/>
</svg>