<svg xmlns="http://www.w3.org/2000/svg" width="14" height="14" viewBox="0 0 14 14" fill="none">
  <path d="M6.66667 6.66667C5.75 6.66667 4.96528 6.34028 4.3125 5.6875C3.65972 5.03472 3.33333 4.25 3.33333 3.33333C3.33333 2.41667 3.65972 1.63194 4.3125 0.979167C4.96528 0.326389 5.75 0 6.66667 0C7.58333 0 8.36806 0.326389 9.02083 0.979167C9.67361 1.63194 10 2.41667 10 3.33333C10 4.25 9.67361 5.03472 9.02083 5.6875C8.36806 6.34028 7.58333 6.66667 6.66667 6.66667ZM0 11.6667V11C0 10.5278 0.121667 10.0939 0.365 9.69833C0.608333 9.30278 0.931111 9.00056 1.33333 8.79167C2.19444 8.36111 3.06944 8.03833 3.95833 7.82333C4.84722 7.60833 5.75 7.50056 6.66667 7.5C7.58333 7.49944 8.48611 7.60722 9.375 7.82333C10.2639 8.03944 11.1389 8.36222 12 8.79167C12.4028 9 12.7258 9.30222 12.9692 9.69833C13.2125 10.0944 13.3339 10.5283 13.3333 11V11.6667C13.3333 12.125 13.1703 12.5175 12.8442 12.8442C12.5181 13.1708 12.1256 13.3339 11.6667 13.3333H1.66667C1.20833 13.3333 0.816111 13.1703 0.49 12.8442C0.163889 12.5181 0.000555556 12.1256 0 11.6667ZM1.66667 11.6667H11.6667V11C11.6667 10.8472 11.6286 10.7083 11.5525 10.5833C11.4764 10.4583 11.3756 10.3611 11.25 10.2917C10.5 9.91667 9.74306 9.63556 8.97917 9.44833C8.21528 9.26111 7.44444 9.16722 6.66667 9.16667C5.88889 9.16611 5.11806 9.26 4.35417 9.44833C3.59028 9.63667 2.83333 9.91778 2.08333 10.2917C1.95833 10.3611 1.8575 10.4583 1.78083 10.5833C1.70417 10.7083 1.66611 10.8472 1.66667 11V11.6667ZM6.66667 5C7.125 5 7.5175 4.83694 7.84417 4.51083C8.17083 4.18472 8.33389 3.79222 8.33333 3.33333C8.33278 2.87444 8.16972 2.48222 7.84417 2.15667C7.51861 1.83111 7.12611 1.66778 6.66667 1.66667C6.20722 1.66556 5.815 1.82889 5.49 2.15667C5.165 2.48444 5.00167 2.87667 5 3.33333C4.99833 3.79 5.16167 4.1825 5.49 4.51083C5.81833 4.83917 6.21056 5.00222 6.66667 5Z" fill="#8C8C8C"/>
</svg>