<svg width="18" height="16" viewBox="0 0 18 16" fill="none" xmlns="http://www.w3.org/2000/svg">
<path d="M4.192 10.616H5.26C5.36733 10.616 5.46733 10.5973 5.56 10.56C5.65333 10.5227 5.74333 10.4603 5.83 10.373L10.858 5.346C10.944 5.24733 11.0083 5.144 11.051 5.036C11.0937 4.928 11.1153 4.82067 11.116 4.714C11.1167 4.60733 11.094 4.50167 11.048 4.397C11.0033 4.293 10.94 4.19133 10.858 4.092L9.938 3.142C9.85267 3.056 9.75367 2.99167 9.641 2.949C9.52767 2.90633 9.416 2.885 9.306 2.885C9.19933 2.885 9.092 2.90633 8.984 2.949C8.876 2.99167 8.77233 3.056 8.673 3.142L3.627 8.17C3.54033 8.25733 3.47833 8.34733 3.441 8.44C3.40367 8.53333 3.385 8.634 3.385 8.742V9.809C3.385 10.041 3.46167 10.2337 3.615 10.387C3.76833 10.5403 3.96067 10.616 4.192 10.616ZM4.269 9.73V8.78L7.717 5.332L8.179 5.82L8.648 6.301L5.219 9.73H4.269ZM8.179 5.82L8.648 6.301L7.718 5.331L8.179 5.82ZM8.809 10.615H14.116C14.258 10.615 14.3767 10.567 14.472 10.471C14.568 10.3757 14.616 10.257 14.616 10.115C14.616 9.97233 14.568 9.85333 14.472 9.758C14.3767 9.66267 14.2577 9.615 14.115 9.615H9.81L8.809 10.615ZM3.078 14L1.374 15.704C1.12133 15.9567 0.829333 16.0147 0.498 15.878C0.166667 15.7413 0.000666667 15.493 0 15.133V1.616C0 1.15533 0.154333 0.771 0.463 0.463C0.771667 0.155 1.156 0.000666667 1.616 0H16.385C16.845 0 17.2293 0.154333 17.538 0.463C17.8467 0.771667 18.0007 1.156 18 1.616V12.385C18 12.845 17.846 13.2293 17.538 13.538C17.23 13.8467 16.8457 14.0007 16.385 14H3.078ZM2.651 13H16.386C16.5393 13 16.6803 12.936 16.809 12.808C16.9377 12.68 17.0017 12.539 17.001 12.385V1.615C17.001 1.46167 16.937 1.32067 16.809 1.192C16.681 1.06333 16.5397 0.999333 16.385 1H1.615C1.46167 1 1.32067 1.064 1.192 1.192C1.06333 1.32 0.999333 1.461 1 1.615V14.645L2.651 13Z" fill="black"/>
</svg>
