<svg width="18" height="16" viewBox="0 0 18 16" fill="none" xmlns="http://www.w3.org/2000/svg">
<path d="M5.73676 12L4.91177 15.275C4.86176 15.4917 4.75343 15.6667 4.58676 15.8C4.4201 15.9333 4.2201 16 3.98676 16C3.6701 16 3.41176 15.875 3.21176 15.625C3.01176 15.375 2.95343 15.1 3.03676 14.8L3.73676 12H1.01176C0.678432 12 0.411765 11.871 0.211765 11.613C0.0117647 11.355 -0.0465686 11.0673 0.0367647 10.75C0.0867647 10.5167 0.203432 10.3333 0.386765 10.2C0.570098 10.0667 0.778432 10 1.01176 10H4.23676L5.23676 6H2.51176C2.17843 6 1.91176 5.871 1.71176 5.613C1.51176 5.355 1.45343 5.06733 1.53676 4.75C1.58676 4.51667 1.70343 4.33333 1.88676 4.2C2.0701 4.06667 2.27843 4 2.51176 4H5.73676L6.56176 0.725C6.61176 0.508333 6.7201 0.333333 6.88676 0.2C7.05343 0.0666665 7.25343 0 7.48676 0C7.80343 0 8.06176 0.125 8.26176 0.375C8.46176 0.625 8.5201 0.9 8.43676 1.2L7.73676 4H11.7368L12.5618 0.725C12.6118 0.508333 12.7201 0.333333 12.8868 0.2C13.0534 0.0666665 13.2534 0 13.4868 0C13.8034 0 14.0618 0.125 14.2618 0.375C14.4618 0.625 14.5201 0.9 14.4368 1.2L13.7368 4H16.4618C16.7951 4 17.0618 4.129 17.2618 4.387C17.4618 4.645 17.5201 4.93267 17.4368 5.25C17.3868 5.48333 17.2701 5.66667 17.0868 5.8C16.9034 5.93333 16.6951 6 16.4618 6H13.2368L12.2368 10H14.9618C15.2951 10 15.5618 10.1293 15.7618 10.388C15.9618 10.6467 16.0201 10.934 15.9368 11.25C15.8868 11.4833 15.7701 11.6667 15.5868 11.8C15.4034 11.9333 15.1951 12 14.9618 12H11.7368L10.9118 15.275C10.8618 15.4917 10.7534 15.6667 10.5868 15.8C10.4201 15.9333 10.2201 16 9.98676 16C9.6701 16 9.41177 15.875 9.21177 15.625C9.01177 15.375 8.95343 15.1 9.03677 14.8L9.73676 12H5.73676ZM6.23676 10H10.2368L11.2368 6H7.23676L6.23676 10Z" fill="black"/>
</svg>
